<svg width="401" height="401" viewBox="0 0 401 401" fill="none" xmlns="http://www.w3.org/2000/svg">
<circle cx="200.576" cy="200.423" r="199.5" fill="url(#paint0_linear_676_2)" stroke="white"/>
<g clip-path="url(#clip0_676_2)">
<path d="M200.576 59.0012C153.818 59.0012 103.349 96.1774 103.349 156.228C103.349 185.865 115.14 210.799 137.785 229.697C138.022 229.99 138.295 230.251 138.598 230.475C155.401 248.7 156.249 252.165 156.364 260.182C156.417 263.355 156.39 264.292 156.364 264.805L156.329 266.652C156.196 270.647 155.993 277.338 164.275 279.866L235.816 295.608C236.383 295.732 236.969 295.743 237.541 295.641C238.112 295.539 238.658 295.325 239.146 295.012C239.635 294.699 240.057 294.293 240.389 293.816C240.721 293.34 240.956 292.803 241.08 292.236C241.204 291.669 241.215 291.083 241.113 290.512C241.011 289.94 240.797 289.395 240.484 288.906C240.171 288.417 239.764 287.995 239.288 287.663C238.812 287.331 238.275 287.097 237.708 286.972L166.511 271.319C165.141 270.903 165.026 270.868 165.15 266.917L165.176 265.229C165.176 265.229 165.265 264.539 165.194 260.049C165.026 248.833 162.587 243.415 144.785 224.173C144.446 223.753 144.032 223.4 143.565 223.13C122.741 205.425 112.187 182.922 112.187 156.228C112.187 101.631 158.061 67.8401 200.576 67.8401C244.028 67.8401 288.964 100.906 288.964 156.228C288.964 191.389 271.923 210.773 257.869 222.97C257.38 223.209 256.94 223.536 256.57 223.934C238.565 243.415 236.126 248.833 235.958 260.049V260.96L235.949 261.269C235.922 261.941 235.825 262.312 235.834 262.454L234.8 262.294L197.721 253.57C197.156 253.438 196.57 253.417 195.997 253.511C195.423 253.604 194.874 253.81 194.381 254.116C193.887 254.421 193.458 254.821 193.119 255.293C192.78 255.764 192.537 256.298 192.404 256.863C192.271 257.428 192.251 258.014 192.345 258.587C192.438 259.16 192.644 259.709 192.949 260.203C193.255 260.697 193.655 261.125 194.127 261.465C194.598 261.804 195.132 262.047 195.697 262.18L232.325 270.771C232.811 270.948 237.213 272.38 240.925 269.772C242.543 268.632 244.425 266.396 244.761 262.118L244.788 261.702L244.805 260.827L244.797 260.597L244.805 260.191C244.92 252.218 245.751 248.753 262.527 230.528C262.61 230.469 262.689 230.404 262.766 230.333C286.339 210.525 297.803 186.28 297.803 156.228C297.803 95.373 248.367 59.0012 200.576 59.0012ZM235.931 319.747C236.933 319.745 237.905 319.403 238.687 318.777C239.469 318.151 240.015 317.277 240.236 316.3C240.494 315.157 240.289 313.958 239.664 312.967C239.039 311.976 238.046 311.273 236.903 311.014L166.193 294.98C165.061 294.751 163.885 294.974 162.916 295.601C161.946 296.228 161.261 297.209 161.006 298.335C160.75 299.461 160.946 300.642 161.55 301.625C162.154 302.609 163.12 303.317 164.239 303.598L234.95 319.632C235.272 319.707 235.601 319.745 235.931 319.747ZM170.603 320.224C170.029 320.072 169.429 320.038 168.841 320.123C168.253 320.208 167.688 320.411 167.18 320.719C166.672 321.027 166.231 321.435 165.884 321.918C165.537 322.401 165.292 322.948 165.161 323.528C165.031 324.108 165.019 324.708 165.126 325.293C165.233 325.878 165.457 326.435 165.785 326.931C166.112 327.427 166.536 327.852 167.031 328.18C167.527 328.509 168.083 328.734 168.668 328.842L226.12 341.729C226.695 341.881 227.294 341.916 227.882 341.83C228.47 341.745 229.036 341.543 229.544 341.234C230.052 340.926 230.492 340.518 230.839 340.035C231.186 339.553 231.432 339.005 231.562 338.425C231.692 337.845 231.704 337.245 231.597 336.66C231.49 336.076 231.266 335.519 230.939 335.023C230.611 334.526 230.187 334.101 229.692 333.773C229.197 333.445 228.64 333.22 228.056 333.111L170.603 320.224Z" fill="white"/>
<path d="M192.323 97.3476C192.399 105.195 187.759 100.383 187.822 104.791C187.851 106.805 190.314 108.602 191.646 111.204C193.23 114.296 193.689 118.261 193.18 121.396C192.849 123.435 192.177 125.488 191.278 127.364C188.834 132.46 184.939 135.253 178.726 134.756C172.821 134.283 166.873 134.333 160.951 134.038C158.816 133.932 152.543 131.809 152.355 133.116C152.076 135.054 153.169 136.416 154.85 136.939C157.8 137.857 160.84 138.756 163.903 139.037C169.801 139.578 175.767 139.453 181.654 140.06C184.77 140.381 187.971 141.277 190.793 142.593C195.446 144.763 196.661 148.563 196.193 154.461C195.743 160.141 192.986 164.035 187.914 166.654C186.78 167.239 185.702 167.938 184.654 168.66C182.879 169.884 183.007 171.314 184.947 172.207C186.077 172.726 187.241 173.176 188.375 173.686C193.631 176.052 197.084 182.8 195.766 188.105C195.106 190.757 191.739 191.914 189.542 190.264C186.181 187.742 182.549 185.777 178.211 185.349C174.665 185 171.649 186.064 169.352 188.709C168.9 189.23 168.5 190.257 168.741 190.751C169.021 191.327 169.995 191.812 170.731 191.912C172.143 192.105 173.6 192.045 175.036 192.008C184.149 191.775 190.009 195.796 193.102 204.097C196.745 213.87 188.899 221.547 180.815 223.148C175.221 224.255 170.445 222.323 166.064 219.2C161.95 216.267 158.58 212.637 155.433 208.481C158.446 208.614 161.235 208.594 163.988 208.894C167.709 209.299 171.406 209.927 175.103 210.517C175.813 210.63 176.506 210.952 177.158 211.272C178.984 212.165 179.003 213.231 177.41 214.504C176.492 214.824 175.29 215.611 176.055 216.417C176.868 217.199 177.481 217.27 178.257 217.482C178.904 217.658 179.657 217.595 180.342 217.495C182.332 217.206 184.232 216.628 185.064 214.641C185.904 212.634 184.867 210.981 183.633 209.458C180.345 205.4 175.66 204.358 170.695 203.989C163.684 203.469 156.666 203.042 149.663 202.448C148.081 202.314 146.488 201.794 145.001 201.213C141.207 199.729 139.819 196.394 141.262 192.727C143.619 193.372 145.931 194.224 148.323 194.613C153.552 195.462 158.379 194.414 162.471 191.009C164.509 189.313 165.62 187.189 165.17 184.496C164.924 183.025 164.028 182.571 162.776 183.432C161.52 184.295 160.327 185.258 159.195 186.27C156.057 189.072 152.406 189.843 148.329 188.874C143.986 187.842 140.079 186.078 137.815 182.096C135.341 177.746 136.918 171.788 141.515 167.787C142.46 166.964 143.528 166.273 144.287 165.709C146.09 167.028 147.644 168.252 149.293 169.34C150.322 170.019 151.429 169.997 152.131 168.807C152.84 167.606 152.667 166.531 151.527 165.585C150.474 164.711 149.33 163.864 148.533 162.794C146.399 159.929 146.902 156.106 149.59 153.715C149.882 153.455 150.345 153.234 150.73 153.231C155.259 153.202 159.791 153.143 164.317 153.262C166.022 153.307 167.787 153.584 169.396 154.118C173.335 155.424 175.544 158.944 174.94 162.561C174.387 165.877 171.159 168.362 167.097 168.579C166.362 168.618 165.608 168.503 164.891 168.62C163.151 168.675 163.485 170.453 163.792 170.812C166.624 174.125 171.083 174.954 174.953 172.958C184.088 168.249 184.79 156.263 176.261 150.699C173.099 148.636 169.575 147.493 165.808 147.31C161.213 147.086 156.596 147.275 152.004 147.033C147.558 146.8 143.58 145.264 140.586 141.934C138.265 139.353 137.772 136.384 139.003 133.174C141.369 127.005 147.525 123.813 154.85 125.17C159.796 126.086 164.649 127.507 169.615 128.279C172.73 128.764 176.019 128.805 179.155 128.442C184.209 127.858 187.219 124.777 188.306 120.008C189.403 115.2 188.131 111.134 184.006 108.079C180.606 105.56 176.625 104.452 172.449 103.903C167.903 103.305 163.407 103.502 159.003 104.833C156.498 105.746 156.235 107.332 156.382 108.121C156.479 108.646 157.777 109.294 158.552 109.314C162.23 109.407 165.922 109.128 169.59 109.318C173.487 109.521 177.408 109.938 180.474 112.761C182.705 114.817 183.612 117.424 182.745 119.534C181.799 121.834 179.339 123.313 176.188 123.142C173.921 123.02 171.655 122.637 169.423 122.203C164.662 121.278 159.941 120.154 155.167 119.297C153.129 118.932 151.001 119.033 148.852 118.919C146.692 113.496 145.417 110.234 151.032 105.194C156.224 100.532 162.374 97.2783 169.753 97.4544C172.291 97.5153 174.795 98.5868 177.33 99.1269C179.461 99.5809 181.61 99.9594 183.762 100.308C184.155 100.371 185.967 100.742 185.478 99.9145C184.705 98.774 184.208 97.6484 183.367 96.87C179.544 93.336 174.821 91.8562 169.62 91.6013C168.921 91.567 168.219 91.5878 167.519 91.577C167.453 91.5762 167.388 91.5342 167.13 91.4444C169.018 88.5698 171.355 86.258 174.807 85.4465C179.396 84.3677 183.774 85.2246 187.697 87.7023C191.653 90.2006 192.274 92.2621 192.323 97.3476ZM140.288 148.7C139.228 148.105 138.563 148.178 137.69 148.879C133.109 152.557 131.763 157.461 131.964 162.92C132.035 164.851 132.641 166.632 134.371 167.798C135.852 166.582 137.158 165.313 138.664 164.329C140.198 163.326 141.929 162.603 143.639 161.725C142.927 157.96 144.054 154.527 146.164 151.387C144.129 150.477 142.122 149.731 140.288 148.7M209.205 97.6936C209.329 93.0137 209.809 90.9 211.599 89.075C217.491 83.0668 227.89 83.77 232.751 90.4914C232.954 90.7715 233.127 91.0726 233.387 91.4782C226.187 91.7388 219.596 92.9924 215.611 99.4629L215.799 100.213C217.192 100.213 218.611 100.382 219.968 100.166C221.336 99.9481 222.684 99.4464 223.966 98.8996C229.115 96.7036 234.243 96.9238 239.294 99.0701C243.313 100.777 247.14 102.846 250.137 106.106C252.827 109.033 253.762 112.329 252.284 116.135C251.914 117.088 251.647 118.08 251.329 119.063C243.124 118.474 235.646 121.8 227.785 122.832C226.019 123.063 224.169 123.182 222.421 122.928C218.544 122.365 216.673 118.465 218.543 115.073C220.437 111.64 223.644 110.033 227.398 109.756C232.056 109.413 236.743 109.438 241.418 109.353C242.539 109.332 243.697 109.465 244.005 108.066C244.305 106.701 243.74 105.645 242.377 105.212C233.859 102.503 225.562 102.895 217.793 107.475C213.038 110.277 211.383 114.937 212.721 120.288C214.001 125.409 217.391 128.168 223.068 128.707C229.089 129.278 234.798 127.685 240.515 126.217C244.269 125.253 248.013 124.422 251.917 125.259C257.845 126.53 262.392 132.594 261.365 137.941C260.771 141.032 258.717 143.092 256.099 144.638C252.923 146.513 249.447 147.188 245.744 147.122C240.454 147.029 235.13 146.663 229.942 148.158C226.689 149.095 223.811 150.699 221.504 153.14C216.645 158.282 217.877 167.088 224.058 171.88C228.088 175.005 232.737 174.766 236.314 171.154C236.752 170.711 236.943 169.848 236.888 169.21C236.867 168.964 235.858 168.702 235.274 168.621C234.066 168.453 232.81 168.54 231.629 168.278C228.15 167.508 226.026 165.155 225.641 161.842C225.315 159.046 227.247 155.949 230.236 154.477C233.133 153.051 236.248 153.217 239.351 153.241C242.558 153.265 245.766 153.202 248.972 153.26C249.578 153.271 250.331 153.519 250.755 153.923C253.674 156.705 253.559 161.183 250.535 164.103C249.947 164.671 249.243 165.124 248.601 165.639C247.495 166.529 247.406 167.647 248.052 168.787C248.715 169.955 249.799 170.039 250.828 169.342C252.442 168.249 253.971 167.034 255.664 165.776C259.687 167.471 263.293 173.079 263.185 177.8C263.08 182.432 259.927 186.106 254.283 188.169C249.106 190.062 244.388 189.658 240.343 185.569C239.52 184.737 238.544 184.03 237.56 183.381C236.462 182.656 235.648 182.93 235.356 184.284C234.691 187.365 236.11 189.649 238.431 191.405C244.161 195.735 250.409 195.684 256.868 193.248C257.436 193.034 257.988 192.779 258.541 192.546C260.167 195.479 259.05 199.59 255.8 200.766C252.502 201.96 248.946 202.683 245.441 203.056C239.176 203.725 232.855 203.864 226.579 204.445C223.118 204.765 220.053 206.232 217.725 208.89C216.206 210.625 214.83 212.487 215.962 214.937C216.82 216.794 219.778 217.935 222.501 217.476C223.263 217.347 223.949 216.779 224.669 216.413C224.225 215.766 223.901 214.976 223.314 214.501C221.724 213.216 221.698 211.874 223.666 211.268C226.67 210.342 229.778 209.608 232.897 209.216C236.77 208.728 240.699 208.671 245.148 208.394C242.876 210.94 241.018 213.233 238.935 215.309C235.141 219.09 230.927 222.242 225.416 223.272C215.766 225.075 205.952 216.42 207.176 207.142C208.381 198.014 215.843 191.73 225.149 191.982C226.699 192.025 228.267 192.102 229.795 191.914C230.538 191.822 231.49 191.303 231.818 190.7C232.061 190.251 231.639 189.195 231.191 188.683C228.212 185.281 224.298 184.426 220.199 185.838C217.091 186.908 214.188 188.664 211.367 190.39C209.306 191.651 206.109 190.753 205.431 188.39C203.998 183.403 207.082 176.557 211.943 174.034C213.216 173.373 214.567 172.861 215.87 172.255C217.801 171.359 217.955 169.842 216.191 168.63C214.803 167.675 213.397 166.72 211.899 165.951C204.307 162.052 204.071 152.824 205.641 147.362C206.45 144.548 208.849 143.05 211.39 141.916C216.349 139.703 221.693 139.817 226.981 139.488C232.217 139.164 237.447 138.647 242.652 137.999C244.002 137.831 245.346 136.998 246.506 136.205C247.16 135.758 247.699 134.799 247.793 134.013C247.875 133.326 247.451 132.253 246.898 131.923C246.47 131.666 245.5 132.303 244.765 132.524C243.043 133.042 241.34 133.882 239.589 133.999C234.087 134.366 228.565 134.413 223.055 134.67C214.574 135.066 209.734 131.318 208.125 122.592C207.612 119.811 207.682 116.877 207.867 114.037C208.032 111.529 209.401 109.493 211.678 108.155C212.358 107.756 213.066 107.352 213.617 106.808C214.112 106.32 215.257 104.677 213.087 103.704C213.087 103.704 209.082 102.374 209.205 97.6936ZM266.891 167.588C271.652 164.072 268.57 151.011 262.201 148.194L255.089 151.389C257.291 154.533 258.222 158.048 257.658 161.356L266.891 167.588Z" fill="#D06C2F"/>
</g>
<defs>
<linearGradient id="paint0_linear_676_2" x1="200.576" y1="152.691" x2="200.576" y2="400.423" gradientUnits="userSpaceOnUse">
<stop stop-color="#01183D"/>
<stop offset="1" stop-color="#1E1E1E"/>
</linearGradient>
<clipPath id="clip0_676_2">
<rect width="194.454" height="282.843" fill="white" transform="translate(103.349 59.0012)"/>
</clipPath>
</defs>
</svg>
